<?xml version="1.0" encoding="utf-8"?>
<!-- Generator: Adobe Illustrator 23.0.2, SVG Export Plug-In . SVG Version: 6.00 Build 0)  -->
<svg version="1.1" id="Layer_1" xmlns="http://www.w3.org/2000/svg" xmlns:xlink="http://www.w3.org/1999/xlink" x="0px" y="0px"
	 viewBox="0 0 511 511" style="enable-background:new 0 0 511 511;" xml:space="preserve">
<style type="text/css">
	.st0{fill:#E63950;}
	.st1{fill:#CC2E43;}
	.st2{fill:#FED2A4;}
	.st3{fill:#FFBD86;}
	.st4{fill:#F4C092;}
	.st5{fill:#FFF5F5;}
	.st6{fill:#EFE2DD;}
	.st7{fill:#F4B74A;}
	.st8{fill:#F9C662;}
	.st9{fill:#FFD488;}
	.st10{fill:#E0A33F;}
</style>
<path class="st0" d="M66.2,455.6h118.6V509H66.2V455.6z"/>
<path class="st1" d="M164.2,455.6h20.6V509h-20.6V455.6z"/>
<path class="st2" d="M14,224.8c-0.5,10.9,2.1,21.7,7.7,31l62.9,106.9c7.7,13.1,3.4,37.7,3.2,53c-0.2,13.7-0.4,27.4-0.6,41l84.2-0.1
	l-0.1-41.5c0-6.1,1.1-12.2,3.2-17.9c2.3-6.3,4.7-12.5,6.8-18.9c1.9-5.5,2.9-11.3,3.1-17.1c0.2-11.4-3-22.7-9.3-32.2l0,0
	c-8.6-13-16.1-26.8-22.2-41.2l-37.8-89c-4.8-11.2-17-17-28.5-14L79.7,66.3c-0.9-15.9-14.3-28.6-30.2-27.9
	C34.3,39,22.3,51.1,21.6,66.1l-1.5,31.3L14,224.8z"/>
<path class="st3" d="M184.5,361.3c-0.1,5.8-1.2,11.6-3.1,17.1c-2.2,6.3-4.5,12.6-6.8,18.9c-2.1,5.7-3.2,11.8-3.2,17.9l0.1,41.5
	l-84.2,0.1l0,0l57.3-0.1l-0.1-41.5c0-6.1,1.1-12.2,3.2-17.9c2.3-6.3,4.7-12.5,6.8-18.9c1.9-5.5,2.9-11.3,3.1-17.1
	c0.6-27.7-18.5-48.3-29.8-71.8c-11.7-24.5-20.1-50.3-30.7-75.2c-2.9-6.9-8.7-11.8-15.4-13.8c-8-2.4-13.7-9.3-14.3-17.6L59,66.3
	c-0.7-11.9-8.3-21.9-18.7-26c2.9-1.1,6-1.8,9.3-1.9c15.9-0.7,29.3,12,30.2,27.9l6.9,118.5c11.5-3,23.7,2.8,28.5,14l37.8,89
	c3.1,7.2,6.4,14.3,10.1,21.1c3.7,6.9,7.7,13.6,12.1,20.1C181.4,338.6,184.7,349.9,184.5,361.3z"/>
<path class="st4" d="M171.3,415.1c0-6.1,1.1-12.2,3.2-17.9c2.3-6.3,4.7-12.5,6.8-18.9c1.9-5.5,2.9-11.3,3.1-17.1
	c0.2-11.4-3-22.7-9.3-32.2c-5-7.6-9.6-15.4-13.8-23.5L146.6,273l-31.5-74.1c-0.3-0.6-0.6-1.3-0.9-1.9c-0.1-0.1-0.1-0.2-0.1-0.3
	c-6.2-11.5-21.4-15.9-32.8-9.8c-0.4,0.2-0.8,0.4-1.2,0.7c-9.2,5.6-12.6,17.4-8.4,27.3l42.3,99.8l9.9,22c6.8,15.1,9.2,31.8,7.1,48.2
	l-4.4,71.2l44.6,0.5L171.3,415.1z"/>
<path class="st5" d="M184.8,456.6H66.2l0.2-28.2c0-5.5,4.5-9.9,10-9.8l98.5,0.7c5.5,0,9.9,4.5,9.8,10v27.3H184.8z"/>
<path class="st6" d="M184.8,429.2v27.4h-20.5v-27.4c0-5.5-4.2-9.9-9.7-10h20.3C180.4,419.2,184.8,423.7,184.8,429.2z"/>
<path class="st0" d="M327.3,510v-52.6l118.4-0.8V510H327.3z"/>
<path class="st0" d="M327.3,510v-52.6l118.4-0.8V510H327.3z"/>
<path class="st1" d="M425.1,456.7h20.5V510h-20.5V456.7z"/>
<path class="st2" d="M497.8,224.8c0.5,10.9-2.1,21.7-7.7,31l-62.9,106.9c-7.7,13.1-3.4,37.7-3.2,53c0.2,13.7,0.4,27.4,0.6,41
	l-84.2-0.1l0.1-41.5c0-6.1-1.1-12.2-3.2-17.9c-2.3-6.3-4.7-12.5-6.8-18.9c-1.9-5.5-2.9-11.3-3.1-17.1c-0.2-11.4,3-22.7,9.3-32.2l0,0
	c8.6-13,16.1-26.8,22.2-41.2l37.8-89c4.8-11.2,17-17,28.5-14l6.9-118.5c0.9-15.9,14.3-28.6,30.2-27.9c15.3,0.6,27.2,12.8,27.9,27.7
	l1.5,31.3L497.8,224.8z"/>
<path class="st4" d="M340.5,415.1c0-6.1-1.1-12.2-3.2-17.9c-2.3-6.3-4.7-12.5-6.8-18.9c-1.9-5.5-2.9-11.3-3.1-17.1
	c-0.2-11.4,3-22.7,9.3-32.2c5-7.6,9.6-15.4,13.8-23.5l14.7-32.7l31.5-74.1c0.3-0.6,0.6-1.3,0.9-1.9c0.1-0.1,0.1-0.2,0.1-0.3
	c6.2-11.5,21.4-15.9,32.8-9.8c0.4,0.2,0.8,0.4,1.2,0.7c9.2,5.6,12.6,17.4,8.4,27.3l-42.3,99.8l-9.9,22c-6.8,15.1-9.2,31.8-7.1,48.2
	l4.4,70.4l-44.6,0.5L340.5,415.1z"/>
<path class="st3" d="M490.1,255.8l-62.9,106.9c-7.7,13.2-3.4,37.7-3.2,53c0.2,13.7,0.4,27.4,0.6,41h-23.4c-0.2-13.7-0.4-27.3-0.6-41
	c-0.2-15.3-4.5-39.9,3.2-53l62.9-106.9c5.5-9.4,8.2-20.2,7.7-31l-6.1-127.4l-1.5-31.3c-0.5-11.2-7.4-20.8-17.3-25.2
	c3.9-1.8,8.2-2.7,12.7-2.5c15.3,0.6,27.2,12.8,27.9,27.7l1.5,31.3l6.1,127.4C498.3,235.6,495.7,246.4,490.1,255.8z"/>
<path class="st5" d="M327.3,457.4l118.2-0.8v-28.2c0-5.5-4.5-9.9-10-9.8l-98.5,0.7c-5.5,0-9.9,4.5-9.8,10L327.3,457.4z"/>
<path class="st6" d="M445.6,428.5v28.2h-20.5v-28.2c0-5.5-4.2-9.9-9.7-10h20.3C441.3,418.6,445.7,423,445.6,428.5z"/>
<g>
	<path class="st7" d="M161.8,44.2C199,7,254.1-1.6,299.5,18.5c10.7,4.7,20.8,11,30.1,19c2.5,2.1,4.9,4.4,7.3,6.7
		c48.4,48.4,48.4,126.7,0,175.1s-126.7,48.4-175.1,0c-2.4-2.4-4.6-4.8-6.7-7.3c-7.9-9.3-14.2-19.4-19-30.1
		C116,136.5,124.5,81.4,161.8,44.2z"/>
	<path class="st8" d="M136.1,181.9L299.5,18.5c10.7,4.7,20.8,11,30.1,19L155.1,212C147.2,202.8,140.9,192.6,136.1,181.9z"/>
	<path class="st9" d="M149.8,131.7c0-55,44.6-99.5,99.5-99.5c31,0,58.8,14.2,77,36.5c14.1,17.2,22.5,39.1,22.5,63.1
		c0,55-44.6,99.5-99.5,99.5c-23.9,0-45.9-8.4-63.1-22.5C164,190.5,149.8,162.8,149.8,131.7z"/>
	<path class="st8" d="M186.2,208.7L326.3,68.7l0,0c4.1,5,7.7,10.5,10.8,16.2c3.5,6.5,6.3,13.5,8.3,20.8c2.2,8.3,3.5,17.1,3.5,26.1
		c0,55-44.6,99.5-99.5,99.5c-9,0-17.8-1.2-26.1-3.5c-7.3-2-14.3-4.8-20.8-8.3C196.7,216.5,191.3,212.8,186.2,208.7z"/>
	<path class="st9" d="M202.4,219.6L337.1,84.9c3.5,6.5,6.3,13.5,8.3,20.8L223.3,227.8C216,225.8,209,223,202.4,219.6z"/>
	<g>
		<g>
			<path class="st10" d="M244.1,196.4v-18.2c-11.6-1.4-19.7-5.6-26.2-12.7c-6.1-6.9-10.1-17.3-10.1-30.5c0-23.3,14.2-41,36.3-44.6
				v-18h11.2V90c8.1,0,15.6,2.4,19.7,4.5l-3.6,12.1c-3.6-2.2-9.7-4.5-18.8-4.5c-17.9,0-28.9,14.4-28.9,32.2
				c0,20.1,12.3,31.8,28.2,31.8c9.9,0,16.3-2.5,20.6-4.5l2.9,11.4c-3.6,2-11.2,4.9-20.1,5.2v18.2H244.1z"/>
		</g>
		<path class="st10" d="M249.3,236.4c-24.1,0-47.7-8.4-66.3-23.7c-24.4-20-38.3-49.5-38.3-81c0-57.7,46.9-104.6,104.6-104.6
			c31.5,0,61,14,81,38.3C345.6,84,354,107.5,354,131.7C354,189.4,307.1,236.4,249.3,236.4z M249.3,37.3c-52,0-94.4,42.3-94.4,94.4
			c0,28.4,12.6,55,34.6,73c16.8,13.8,38,21.4,59.8,21.4c52,0,94.4-42.3,94.4-94.4c0-21.8-7.6-43-21.4-59.8
			C304.3,50,277.7,37.3,249.3,37.3z"/>
	</g>
</g>
</svg>
