<svg height="512pt" viewBox="-32 0 512 512" width="512pt" xmlns="http://www.w3.org/2000/svg"><path d="m365.347656 481.125c0 17.050781-13.824218 30.875-30.875 30.875h-303.597656c-17.050781 0-30.875-13.824219-30.875-30.875v-392.105469c0-17.050781 13.824219-30.871093 30.875-30.871093h303.597656c17.050782 0 30.875 13.820312 30.875 30.871093zm0 0" fill="#aa8452"/><path d="m365.347656 89.019531v392.105469c0 17.054688-13.820312 30.875-30.875 30.875h-30.875c17.054688 0 30.875-13.820312 30.875-30.875v-392.105469c0-17.050781-13.820312-30.871093-30.875-30.871093h30.875c17.050782 0 30.875 13.820312 30.875 30.871093zm0 0" fill="#7f5c3e"/><path d="m334.472656 93.136719c0-2.839844-2.304687-5.144531-5.148437-5.144531h-294.332031c-2.84375 0-5.148438 2.304687-5.148438 5.144531v382.84375c0 2.839843 2.304688 5.144531 5.148438 5.144531h294.335937c2.839844 0 5.144531-2.304688 5.144531-5.144531zm0 0" fill="#fff"/><path d="m226.28125 52.484375v-37.046875c0-8.527344-6.914062-15.4375-15.4375-15.4375h-56.605469c-8.523437 0-15.433593 6.910156-15.433593 15.4375v37.046875zm0 0" fill="#ccc"/><path d="m226.28125 15.4375v37.046875h-30.875v-37.046875c0-8.523438-6.90625-15.4375-15.4375-15.4375h30.875c8.53125 0 15.4375 6.914062 15.4375 15.4375zm0 0" fill="#a0a0a0"/><path d="m104.839844 42.195312c-5.683594 0-10.289063 4.609376-10.289063 10.289063v50.429687c0 5.683594 4.605469 10.289063 10.289063 10.289063h155.402344c5.683593 0 10.289062-4.605469 10.289062-10.289063v-50.429687c0-5.683594-4.605469-10.289063-10.289062-10.289063zm0 0" fill="#e8e8e8"/><path d="m443.386719 141.261719-15.144531-8.742188c-4.917969-2.839843-11.210938-1.15625-14.050782 3.765625l-12.855468 22.269532 10.699218 19.03125h22.257813l12.859375-22.273438c2.839844-4.917969 1.15625-11.210938-3.765625-14.050781zm0 0" fill="#db8733"/><path d="m395.988281 155.46875 43.652344 25.203125c4.917969 2.839844 6.601563 9.128906 3.761719 14.050781l-10.285156 17.8125-42.347657-4.671875-19.117187-30.8125 10.285156-17.816406c2.84375-4.921875 9.132812-6.605469 14.050781-3.765625zm0 0" fill="#edaf54"/><path d="m330.773438 389.804688h-38.25l-23.214844-35.484376 102.34375-177.269531 61.464844 35.484375zm0 0" fill="#ffd47d"/><path d="m309.4375 419.269531-44.375 20.578125c-3.265625 1.515625-7.035156-.710937-7.292969-4.300781l-3.441406-48.214844c-.292969-4.097656.648437-8.191406 2.703125-11.75l12.277344-21.261719 61.464844 35.484376-12.175782 21.085937c-2.117187 3.671875-5.316406 6.59375-9.160156 8.378906zm0 0" fill="#edaf54"/><g fill="#515759"><path d="m76.996094 430.007812c-1.820313 0-3.652344-.644531-5.121094-1.949218-3.1875-2.832032-3.476562-7.710938-.644531-10.894532l17.28125-19.460937c2.484375-2.796875 6.054687-4.375 9.800781-4.320313 3.742188.054688 7.269531 1.730469 9.675781 4.597657l11.882813 14.171875 14.195312-15.410156c2.433594-2.644532 5.875-4.148438 9.460938-4.148438h.136718c3.632813.039062 7.097657 1.621094 9.503907 4.347656l17.679687 20.011719c2.824219 3.195313 2.523438 8.070313-.671875 10.894531-3.195312 2.820313-8.074219 2.519532-10.894531-.675781l-15.792969-17.875-14.25 15.46875c-2.503906 2.722656-6.058593 4.21875-9.757812 4.144531-3.699219-.085937-7.183594-1.761718-9.558594-4.59375l-11.847656-14.132812-15.304688 17.230468c-1.523437 1.71875-3.640625 2.59375-5.773437 2.59375zm0 0"/><path d="m291.886719 175.46875h-219.207031c-4.261719 0-7.71875-3.453125-7.71875-7.71875 0-4.261719 3.457031-7.71875 7.71875-7.71875h219.207031c4.265625 0 7.71875 3.453125 7.71875 7.71875s-3.453125 7.71875-7.71875 7.71875zm0 0"/><path d="m165.304688 216.636719h-91.59375c-4.265626 0-7.722657-3.457031-7.722657-7.722657 0-4.261718 3.457031-7.71875 7.722657-7.71875h91.59375c4.261718 0 7.71875 3.457032 7.71875 7.71875 0 4.265626-3.457032 7.722657-7.71875 7.722657zm0 0"/><path d="m237.34375 216.636719h-36.019531c-4.261719 0-7.71875-3.457031-7.71875-7.722657 0-4.261718 3.457031-7.71875 7.71875-7.71875h36.019531c4.261719 0 7.71875 3.457032 7.71875 7.71875 0 4.265626-3.457031 7.722657-7.71875 7.722657zm0 0"/><path d="m147.808594 257.800781h-74.097656c-4.265626 0-7.71875-3.453125-7.71875-7.71875s3.453124-7.71875 7.71875-7.71875h74.097656c4.261718 0 7.71875 3.453125 7.71875 7.71875s-3.457032 7.71875-7.71875 7.71875zm0 0"/><path d="m215.730469 257.800781h-34.988281c-4.265626 0-7.71875-3.453125-7.71875-7.71875s3.453124-7.71875 7.71875-7.71875h34.988281c4.265625 0 7.71875 3.453125 7.71875 7.71875s-3.457031 7.71875-7.71875 7.71875zm0 0"/><path d="m127.226562 298.96875h-53.515624c-4.265626 0-7.722657-3.457031-7.722657-7.722656 0-4.261719 3.457031-7.71875 7.722657-7.71875h53.515624c4.261719 0 7.71875 3.457031 7.71875 7.71875 0 4.265625-3.457031 7.722656-7.71875 7.722656zm0 0"/><path d="m215.730469 298.96875h-55.574219c-4.261719 0-7.71875-3.457031-7.71875-7.722656 0-4.261719 3.457031-7.71875 7.71875-7.71875h55.574219c4.265625 0 7.71875 3.457031 7.71875 7.71875 0 4.265625-3.457031 7.722656-7.71875 7.722656zm0 0"/><path d="m127.226562 340.132812h-53.515624c-4.265626 0-7.722657-3.453124-7.722657-7.71875 0-4.261718 3.457031-7.71875 7.722657-7.71875h53.515624c4.261719 0 7.71875 3.453126 7.71875 7.71875 0 4.261719-3.457031 7.71875-7.71875 7.71875zm0 0"/></g><path d="m270.535156 52.484375v50.429687c0 5.679688-4.613281 10.289063-10.292968 10.289063h-30.875c5.683593 0 10.292968-4.609375 10.292968-10.289063v-50.429687c0-5.679687-4.609375-10.289063-10.292968-10.289063h30.875c5.679687 0 10.292968 4.609376 10.292968 10.289063zm0 0" fill="#ccc"/><path d="m443.40625 194.71875-10.285156 17.8125-26.738282-15.433594 10.285157-17.816406c2.839843-4.921875 1.15625-11.207031-3.761719-14.046875l26.738281 15.4375c4.917969 2.839844 6.601563 9.125 3.761719 14.046875zm0 0" fill="#db8733"/><path d="m304.027344 374.375 102.347656-177.265625 26.738281 15.4375-102.351562 177.265625zm0 0" fill="#e89e46"/><path d="m330.773438 389.804688-12.175782 21.089843c-2.117187 3.660157-5.316406 6.589844-9.164062 8.375l-44.367188 20.574219c-3.261718 1.515625-7.042968-.703125-7.300781-4.296875l-1.390625-19.507813 26.320312-12.207031c3.847657-1.785156 7.046876-4.714843 9.164063-8.375l12.171875-21.089843zm0 0" fill="#db8733"/></svg>