<?xml version="1.0" encoding="utf-8"?>
<!-- Generator: Adobe Illustrator 23.0.2, SVG Export Plug-In . SVG Version: 6.00 Build 0)  -->
<svg version="1.1" id="Capa_1" xmlns="http://www.w3.org/2000/svg" xmlns:xlink="http://www.w3.org/1999/xlink" x="0px" y="0px"
	 viewBox="0 0 512 512" style="enable-background:new 0 0 512 512;" xml:space="preserve">
<style type="text/css">
	.st0{fill:#F4B74A;}
	.st1{fill:#F9C662;}
	.st2{fill:#FFD488;}
	.st3{fill:#E0A33F;}
	.st4{fill:#E05F5F;}
</style>
<path class="st0" d="M55.5,56.5c57-57,141.2-70.1,210.7-39.3c16.4,7.2,31.9,16.9,46.1,29c3.8,3.2,7.5,6.7,11.1,10.2
	c74,74,74,193.9,0,267.9c-74,74-193.9,74-267.9,0c-3.6-3.6-7-7.3-10.2-11.1c-12.1-14.2-21.8-29.7-29-46.1
	C-14.6,197.7-1.5,113.4,55.5,56.5z"/>
<path class="st1" d="M16.2,267.2l250-250c16.4,7.2,31.9,16.9,46.1,29L45.2,313.3C33.1,299.1,23.5,283.6,16.2,267.2z"/>
<path class="st2" d="M37.2,190.4c0-84.1,68.2-152.3,152.3-152.3c47.5,0,89.9,21.7,117.8,55.8c21.6,26.3,34.5,59.9,34.5,96.5
	c0,84.1-68.2,152.3-152.3,152.3c-36.6,0-70.3-12.9-96.5-34.5C58.9,280.3,37.2,237.9,37.2,190.4z"/>
<path class="st1" d="M92.9,308.2L307.2,93.9l0,0c6.3,7.7,11.8,16,16.6,24.8c5.4,10,9.6,20.7,12.7,31.9c3.4,12.7,5.3,26.1,5.3,39.9
	c0,84.1-68.2,152.3-152.3,152.3c-13.8,0-27.2-1.8-39.9-5.3c-11.2-3-21.9-7.3-31.9-12.7C108.9,320.1,100.6,314.5,92.9,308.2z"/>
<path class="st2" d="M117.7,324.8l206.1-206.1c5.4,10,9.6,20.7,12.7,31.9L149.6,337.4C138.4,334.4,127.7,330.1,117.7,324.8z"/>
<g>
	<g>
		<path class="st3" d="M181.4,289.3v-27.9c-17.7-2.2-30.1-8.6-40.1-19.4c-9.4-10.5-15.5-26.5-15.5-46.7c0-35.7,21.8-62.8,55.6-68.3
			V99.4h17.1v27.1c12.4,0,23.8,3.6,30.1,6.9l-5.5,18.5c-5.5-3.3-14.9-6.9-28.8-6.9c-27.4,0-44.2,22.1-44.2,49.2
			c0,30.7,18.8,48.7,43.1,48.7c15.2,0,24.9-3.9,31.5-6.9l4.4,17.4c-5.5,3-17.1,7.5-30.7,8v27.9H181.4z"/>
	</g>
	<path class="st3" d="M189.4,350.6c-36.9,0-73-12.9-101.5-36.3c-37.3-30.6-58.6-75.7-58.6-123.9c0-88.3,71.8-160.1,160.1-160.1
		c48.2,0,93.3,21.4,123.9,58.6c23.4,28.5,36.3,64.5,36.3,101.5C349.6,278.7,277.8,350.6,189.4,350.6z M189.4,46
		C109.8,46,45,110.8,45,190.4c0,43.4,19.3,84.1,52.9,111.7c25.7,21.1,58.2,32.7,91.5,32.7c79.6,0,144.4-64.8,144.4-144.4
		c0-33.3-11.6-65.8-32.7-91.5C273.6,65.3,232.9,46,189.4,46z"/>
</g>
<polygon class="st4" points="512,393.2 386.2,511 260.4,393.2 317.7,393.2 317.7,1 454.6,1 454.6,393.2 "/>
</svg>
