<svg height="512pt" viewBox="-27 0 512 512.001" width="512pt" xmlns="http://www.w3.org/2000/svg"><path d="m327.839844 0h-267.164063v511.996094h376.082031c12.046876 0 21.816407-9.765625 21.816407-21.816406v-367.605469c0-6.078125-2.539063-11.882813-7.003907-16.011719l-108.914062-100.761719c-4.03125-3.730469-9.324219-5.800781-14.816406-5.800781zm0 0" fill="#efe2dd"/><path d="m458.578125 122.574219v367.609375c0 12.042968-9.773437 21.816406-21.816406 21.816406h-30.707031c12.054687 0 21.816406-9.773438 21.816406-21.816406v-405.546875l23.703125 21.925781c4.460937 4.132812 7.003906 9.933594 7.003906 16.011719zm0 0" fill="#e1d3ce"/><path d="m343.011719 6.160156v80.789063c0 10.636719 8.621093 19.253906 19.253906 19.253906h88.59375zm0 0" fill="#cdbfba"/><path d="m87.410156 511.996094h-82.273437c-2.835938 0-5.136719-2.300782-5.136719-5.136719v-501.722656c0-2.835938 2.300781-5.136719 5.136719-5.136719h82.273437zm0 0" fill="#b9acac"/><path d="m60.675781 0h26.734375v511.996094h-26.734375zm0 0" fill="#9e9797"/><path d="m390.085938 204.398438h-234.183594c-2.835938 0-5.136719-2.296876-5.136719-5.132813v-45.195313c0-2.835937 2.296875-5.136718 5.136719-5.136718h234.183594c2.835937 0 5.136718 2.300781 5.136718 5.136718v45.195313c0 2.835937-2.300781 5.132813-5.136718 5.132813zm0 0" fill="#c9f0ff"/><path d="m390.085938 204.398438h-81.695313v-55.464844h81.695313c2.835937 0 5.136718 2.300781 5.136718 5.136718v45.195313c0 2.835937-2.300781 5.132813-5.136718 5.132813zm0 0" fill="#ff4343"/><path d="m390.085938 204.398438h-17.527344v-55.464844h17.527344c2.835937 0 5.136718 2.300781 5.136718 5.136718v45.195313c0 2.835937-2.300781 5.132813-5.136718 5.132813zm0 0" fill="#f72c2c"/><path d="m390.085938 290.679688h-234.183594c-2.835938 0-5.136719-2.296876-5.136719-5.136719v-45.191407c0-2.835937 2.296875-5.136718 5.136719-5.136718h234.183594c2.835937 0 5.136718 2.296875 5.136718 5.136718v45.191407c0 2.835937-2.300781 5.136719-5.136718 5.136719zm0 0" fill="#c9f0ff"/><path d="m390.085938 290.679688h-137.472657v-55.464844h137.472657c2.835937 0 5.136718 2.300781 5.136718 5.136718v45.195313c0 2.832031-2.300781 5.132813-5.136718 5.132813zm0 0" fill="#5ee2c5"/><path d="m390.085938 290.679688h-17.527344v-55.464844h17.527344c2.835937 0 5.136718 2.300781 5.136718 5.136718v45.195313c0 2.832031-2.300781 5.132813-5.136718 5.132813zm0 0" fill="#00d3b4"/><path d="m62.503906 141.285156c0 10.378906-8.417968 18.792969-18.796875 18.792969-10.382812 0-18.796875-8.414063-18.796875-18.792969 0-10.382812 8.414063-18.796875 18.796875-18.796875 10.378907 0 18.796875 8.414063 18.796875 18.796875zm0 0" fill="#efe2dd"/><path d="m62.503906 256.785156c0 10.378906-8.417968 18.792969-18.796875 18.792969-10.382812 0-18.796875-8.414063-18.796875-18.792969 0-10.382812 8.414063-18.796875 18.796875-18.796875 10.378907 0 18.796875 8.414063 18.796875 18.796875zm0 0" fill="#efe2dd"/><path d="m62.503906 372.285156c0 10.378906-8.417968 18.796875-18.796875 18.796875-10.382812 0-18.796875-8.417969-18.796875-18.796875 0-10.382812 8.414063-18.796875 18.796875-18.796875 10.378907 0 18.796875 8.414063 18.796875 18.796875zm0 0" fill="#efe2dd"/><path d="m62.507812 141.28125c0 10.386719-8.421874 18.796875-18.796874 18.796875-7.550782 0-14.0625-4.445313-17.039063-10.875 1.507813.390625 3.089844.597656 4.710937.597656 10.375 0 18.796876-8.414062 18.796876-18.796875 0-2.824218-.625-5.507812-1.746094-7.910156 8.097656 2.082031 14.074218 9.4375 14.074218 18.1875zm0 0" fill="#e1d3ce"/><path d="m62.507812 256.785156c0 10.382813-8.421874 18.796875-18.796874 18.796875-7.558594 0-14.074219-4.460937-17.050782-10.878906 1.511719.390625 3.09375.597656 4.726563.597656 10.371093 0 18.796875-8.414062 18.796875-18.796875 0-2.824218-.628906-5.507812-1.757813-7.910156 8.09375 2.085938 14.082031 9.4375 14.082031 18.191406zm0 0" fill="#e1d3ce"/><path d="m62.507812 372.285156c0 10.386719-8.421874 18.796875-18.796874 18.796875-7.550782 0-14.0625-4.445312-17.039063-10.875 1.507813.390625 3.089844.59375 4.710937.59375 10.375 0 18.796876-8.410156 18.796876-18.796875 0-2.824218-.625-5.503906-1.746094-7.90625 8.097656 2.082032 14.074218 9.4375 14.074218 18.1875zm0 0" fill="#e1d3ce"/><g fill="#5a5a5a"><path d="m183.265625 411.902344c0-4.253906-3.449219-7.703125-7.707031-7.703125h-24.796875c-4.253907 0-7.703125 3.449219-7.703125 7.703125s3.449218 7.703125 7.703125 7.703125h24.796875c4.257812 0 7.707031-3.449219 7.707031-7.703125zm0 0"/><path d="m202.179688 404.199219c-4.257813 0-7.707032 3.449219-7.707032 7.703125s3.449219 7.703125 7.707032 7.703125h17.535156c4.253906 0 7.703125-3.449219 7.703125-7.703125s-3.449219-7.703125-7.703125-7.703125zm0 0"/><path d="m277.199219 404.199219h-33.042969c-4.253906 0-7.703125 3.449219-7.703125 7.703125s3.449219 7.703125 7.703125 7.703125h33.042969c4.253906 0 7.703125-3.449219 7.703125-7.703125s-3.449219-7.703125-7.703125-7.703125zm0 0"/><path d="m166.117188 436.019531h-15.351563c-4.257813 0-7.707031 3.449219-7.707031 7.703125 0 4.257813 3.449218 7.707032 7.707031 7.707032h15.351563c4.253906 0 7.703124-3.449219 7.703124-7.707032 0-4.253906-3.449218-7.703125-7.703124-7.703125zm0 0"/><path d="m234.460938 436.019531h-45.875c-4.253907 0-7.703126 3.449219-7.703126 7.703125 0 4.257813 3.449219 7.707032 7.703126 7.707032h45.875c4.253906 0 7.703124-3.449219 7.703124-7.707032 0-4.253906-3.449218-7.703125-7.703124-7.703125zm0 0"/><path d="m277.199219 436.019531h-16.523438c-4.253906 0-7.703125 3.449219-7.703125 7.703125 0 4.257813 3.449219 7.707032 7.703125 7.707032h16.523438c4.253906 0 7.703125-3.449219 7.703125-7.707032 0-4.253906-3.449219-7.703125-7.703125-7.703125zm0 0"/><path d="m150.765625 353.847656h38.285156c4.253907 0 7.703125-3.449218 7.703125-7.703125 0-4.253906-3.449218-7.703125-7.703125-7.703125h-38.285156c-4.257813 0-7.707031 3.449219-7.707031 7.703125 0 4.253907 3.449218 7.703125 7.707031 7.703125zm0 0"/><path d="m150.765625 383.636719h78.667969c4.257812 0 7.703125-3.449219 7.703125-7.703125 0-4.257813-3.445313-7.707032-7.703125-7.707032h-78.667969c-4.257813 0-7.707031 3.449219-7.707031 7.707032 0 4.253906 3.449218 7.703125 7.707031 7.703125zm0 0"/><path d="m380.011719 393.441406c-12.230469 0-18.96875 6.128906-18.96875 17.257813v17.671875c0 11.128906 6.738281 17.257812 18.96875 17.257812 12.152343 0 18.84375-6.128906 18.84375-17.257812v-17.671875c0-11.128907-6.691407-17.257813-18.84375-17.257813zm5.402343 34.925782c0 3.441406-1.714843 5.039062-5.40625 5.039062-3.601562 0-5.28125-1.597656-5.28125-5.039062v-17.667969c0-3.4375 1.679688-5.039063 5.28125-5.039063 3.6875 0 5.40625 1.601563 5.40625 5.039063zm0 0"/><path d="m381.792969 355.253906c0-4.136718-4.019531-7.023437-7.632813-7.023437-2.539062 0-4.695312 1.277343-5.769531 3.417969l-43.867187 88.832031-.046876.109375c-.277343.695312-.597656 1.625-.597656 2.644531 0 3.332031 2.917969 6.902344 7.265625 6.902344 2.808594 0 5.230469-1.417969 6.132813-3.535157l43.867187-88.464843c.4375-.875.648438-1.820313.648438-2.882813zm0 0"/><path d="m343.898438 388.035156v-17.671875c0-11.128906-6.691407-17.257812-18.847657-17.257812-12.226562 0-18.964843 6.128906-18.964843 17.257812v17.671875c0 11.128906 6.738281 17.261719 18.964843 17.261719 12.152344 0 18.847657-6.132813 18.847657-17.261719zm-24.128907 0v-17.671875c0-3.4375 1.679688-5.039062 5.28125-5.039062 3.691407 0 5.40625 1.601562 5.40625 5.039062v17.671875c0 3.4375-1.714843 5.039063-5.40625 5.039063-3.601562 0-5.28125-1.601563-5.28125-5.039063zm0 0"/></g></svg>