<?xml version="1.0" encoding="iso-8859-1"?>
<!-- Generator: Adobe Illustrator 19.0.0, SVG Export Plug-In . SVG Version: 6.00 Build 0)  -->
<svg version="1.1" id="Capa_1" xmlns="http://www.w3.org/2000/svg" xmlns:xlink="http://www.w3.org/1999/xlink" x="0px" y="0px"
	 viewBox="0 0 512 512" style="enable-background:new 0 0 512 512;" xml:space="preserve">
<path style="fill:#C6C5CA;" d="M464.815,70.874h-92.63c-4.146,0-7.506,3.36-7.506,7.506v287.954l-59.778,59.777H139.813
	c-4.145,0-7.506,3.36-7.506,7.506v70.874c0,4.146,3.361,7.506,7.506,7.506h260.828c1.991,0,3.9-0.791,5.308-2.198l64.175-64.175
	c1.407-1.408,2.198-3.317,2.198-5.308V78.381C472.321,74.235,468.961,70.874,464.815,70.874z"/>
<path style="fill:#B2B1B5;" d="M372.186,70.874c-4.146,0-7.506,3.36-7.506,7.506v287.954l-59.778,59.777H139.813
	c-4.145,0-7.506,3.36-7.506,7.506v26.022h7.506h193.22l67.177-70.18V70.874H372.186z"/>
<path style="fill:#919191;" d="M471.75,437.445c-1.161-2.805-3.899-4.634-6.935-4.634h-64.176c-4.146,0-7.506,3.36-7.506,7.506
	v64.176c0,3.036,1.829,5.774,4.634,6.935c0.929,0.385,1.904,0.571,2.87,0.571c1.954,0,3.873-0.763,5.31-2.198l64.176-64.176
	C472.27,443.48,472.912,440.251,471.75,437.445z"/>
<path style="fill:#E0E0E0;" d="M372.186,0H47.184c-4.145,0-7.506,3.361-7.506,7.506v426.113c0,4.146,3.361,7.506,7.506,7.506
	h260.828c1.991,0,3.9-0.791,5.308-2.198l64.175-64.175c1.407-1.408,2.198-3.317,2.198-5.308V7.506
	C379.693,3.361,376.332,0,372.186,0z"/>
<path style="fill:#C6C5CA;" d="M372.186,0h-25.021v405.081l30.328-30.328c1.407-1.408,2.198-3.317,2.198-5.308V7.506
	C379.693,3.361,376.332,0,372.186,0z"/>
<g>
	<path style="fill:#727272;" d="M305.133,316.433H117.845c-4.145,0-7.506-3.36-7.506-7.506s3.361-7.506,7.506-7.506h187.288
		c4.146,0,7.506,3.36,7.506,7.506S309.279,316.433,305.133,316.433z"/>
	<path style="fill:#727272;" d="M305.133,281.102H117.845c-4.145,0-7.506-3.361-7.506-7.506c0-4.146,3.361-7.506,7.506-7.506
		h187.288c4.146,0,7.506,3.36,7.506,7.506S309.279,281.102,305.133,281.102z"/>
	<path style="fill:#727272;" d="M246.974,351.765H117.845c-4.145,0-7.506-3.36-7.506-7.506s3.361-7.506,7.506-7.506h129.129
		c4.145,0,7.506,3.36,7.506,7.506C254.481,348.404,251.12,351.765,246.974,351.765z"/>
</g>
<path style="fill:#919191;" d="M379.12,366.571c-1.161-2.805-3.899-4.634-6.935-4.634H308.01c-4.146,0-7.506,3.361-7.506,7.506
	v64.176c0,3.036,1.829,5.774,4.634,6.935c0.929,0.385,1.904,0.571,2.87,0.571c1.954,0,3.873-0.763,5.31-2.198l64.176-64.176
	C379.641,372.604,380.283,369.375,379.12,366.571z"/>
<path style="fill:#FBA806;" d="M273.767,149.441h-70.793V78.648c0-4.146-3.361-7.506-7.506-7.506
	c-47.314,0-85.806,38.492-85.806,85.806c0,47.313,38.492,85.805,85.806,85.805s85.806-38.492,85.806-85.805
	C281.273,152.802,277.912,149.441,273.767,149.441z"/>
<path style="fill:#F46F14;" d="M228.071,38.955c-4.145,0-7.506,3.36-7.506,7.506v78.299c0,4.146,3.361,7.506,7.506,7.506h78.3
	c4.146,0,7.506-3.36,7.506-7.506C313.876,77.447,275.384,38.955,228.071,38.955z"/>
<g>
</g>
<g>
</g>
<g>
</g>
<g>
</g>
<g>
</g>
<g>
</g>
<g>
</g>
<g>
</g>
<g>
</g>
<g>
</g>
<g>
</g>
<g>
</g>
<g>
</g>
<g>
</g>
<g>
</g>
</svg>
