<svg height="511pt" viewBox="-96 0 511 511.998" width="511pt" xmlns="http://www.w3.org/2000/svg"><path d="m280.316406 30.90625c-19.988281 0-19.988281-30.90625-39.976562-30.90625-19.988282 0-19.988282 30.90625-39.976563 30.90625s-19.988281-30.90625-39.976562-30.90625c-19.984375 0-19.984375 30.90625-39.972657 30.90625-19.984374 0-19.984374-30.90625-39.972656-30.90625-19.984375 0-19.984375 30.90625-39.96875 30.90625-14.617187 0-18.542968-16.535156-27.417968-25.414062-4.625-4.628907-12.554688-1.25-12.554688 5.289062v490.433594c0 6.542968 7.929688 9.917968 12.554688 5.292968 8.871093-8.882812 12.800781-25.414062 27.417968-25.414062 19.984375 0 19.984375 30.902344 39.96875 30.902344 19.988282 0 19.988282-30.902344 39.972656-30.902344 19.988282 0 19.988282 30.902344 39.972657 30.902344 19.988281 0 19.988281-30.902344 39.976562-30.902344s19.988281 30.902344 39.976563 30.902344c19.988281 0 19.988281-30.902344 39.976562-30.902344 14.625 0 18.550782 16.535156 27.425782 25.414062 4.625 4.625 12.554687 1.25 12.554687-5.289062v-490.4375c0-6.539062-7.929687-9.917969-12.554687-5.292969-8.875 8.882813-12.800782 25.417969-27.425782 25.417969zm0 0" fill="#eeedee"/><path d="m280.316406 30.90625c-8.078125 0-12.894531-5.050781-17.082031-11.070312v472.328124c4.1875-6.019531 9-11.070312 17.082031-11.070312 14.625 0 18.550782 16.539062 27.425782 25.417969 4.625 4.625 12.554687 1.246093 12.554687-5.292969v-490.4375c0-6.539062-7.929687-9.917969-12.554687-5.292969-8.875 8.882813-12.800782 25.417969-27.425782 25.417969zm0 0" fill="#d6d5d6"/><g fill="#68a1d7"><path d="m169.519531 232.113281h-132.371093c-3.050782 0-5.523438-2.472656-5.523438-5.523437v-21.078125c0-3.050781 2.472656-5.523438 5.523438-5.523438h132.371093c3.050781 0 5.523438 2.472657 5.523438 5.523438v21.078125c0 3.050781-2.472657 5.523437-5.523438 5.523437zm0 0"/><path d="m279.628906 431.957031h-80.621094c-5.269531 0-9.542968-4.273437-9.542968-9.542969v-13.035156c0-5.273437 4.273437-9.546875 9.542968-9.546875h80.621094c5.269532 0 9.542969 4.273438 9.542969 9.546875v13.035156c0 5.269532-4.273437 9.542969-9.542969 9.542969zm0 0"/><path d="m31.625 85.734375v20.742187c0 3.144532 2.550781 5.691407 5.691406 5.691407h246.164063c3.144531 0 5.691406-2.546875 5.691406-5.691407v-20.742187c0-3.144531-2.546875-5.691406-5.691406-5.691406h-246.164063c-3.140625 0-5.691406 2.546875-5.691406 5.691406zm0 0"/></g><path d="m289.171875 145.460938h-257.546875c-4.265625 0-7.726562 3.457031-7.726562 7.722656 0 4.269531 3.460937 7.726562 7.726562 7.726562h257.546875c4.265625 0 7.726563-3.457031 7.726563-7.726562 0-4.265625-3.460938-7.722656-7.726563-7.722656zm0 0" fill="#f94530"/><path d="m125.078125 273.714844c0-4.265625-3.457031-7.726563-7.726563-7.726563h-85.722656c-4.269531 0-7.726562 3.460938-7.726562 7.726563 0 4.269531 3.457031 7.726562 7.726562 7.726562h85.722656c4.269532 0 7.726563-3.457031 7.726563-7.726562zm0 0" fill="#5c5c5c"/><path d="m103.335938 304.964844h-71.707032c-4.269531 0-7.726562 3.460937-7.726562 7.726562s3.457031 7.726563 7.726562 7.726563h71.707032c4.265624 0 7.726562-3.460938 7.726562-7.726563s-3.460938-7.726562-7.726562-7.726562zm0 0" fill="#5c5c5c"/><path d="m103.335938 343.941406h-71.707032c-4.269531 0-7.726562 3.457032-7.726562 7.722656 0 4.269532 3.457031 7.726563 7.726562 7.726563h71.707032c4.265624 0 7.726562-3.457031 7.726562-7.726563 0-4.265624-3.460938-7.722656-7.726562-7.722656zm0 0" fill="#5c5c5c"/><path d="m289.171875 343.941406h-35.855469c-4.265625 0-7.722656 3.457032-7.722656 7.726563 0 4.265625 3.457031 7.726562 7.722656 7.726562h35.855469c4.269531 0 7.726563-3.460937 7.726563-7.726562 0-4.269531-3.460938-7.726563-7.726563-7.726563zm0 0" fill="#68a1d7"/><path d="m289.171875 304.964844h-35.855469c-4.265625 0-7.722656 3.460937-7.722656 7.726562s3.457031 7.726563 7.722656 7.726563h35.855469c4.269531 0 7.726563-3.460938 7.726563-7.726563s-3.460938-7.726562-7.726563-7.726562zm0 0" fill="#68a1d7"/><path d="m289.171875 265.988281h-35.855469c-4.265625 0-7.722656 3.460938-7.722656 7.726563 0 4.269531 3.457031 7.726562 7.722656 7.726562h35.855469c4.269531 0 7.726563-3.457031 7.726563-7.726562 0-4.265625-3.460938-7.726563-7.726563-7.726563zm0 0" fill="#68a1d7"/></svg>