<svg height="512pt" viewBox="-48 0 512 512" width="512pt" xmlns="http://www.w3.org/2000/svg"><path d="m409.25 6.945312c-4.285156-4.289062-10.210938-6.945312-16.75-6.945312h-35.449219v111.257812h49.613281c5.265626 0 9.527344-4.261718 9.527344-9.527343v-78.035157c0-6.542968-2.65625-12.464843-6.941406-16.75zm0 0" fill="#fec359"/><path d="m66.273438 99.925781-66.273438 75.203125v289.894532c0 5.460937 4.429688 9.890624 9.890625 9.890624h239.414063v-374.988281zm0 0" fill="#dceeef"/><path d="m190.582031 474.914062h58.722657v-374.988281h-40.636719v94.285157c0 14.210937-11.519531 25.734374-25.734375 25.734374-7.976563 0-14.441406 6.464844-14.441406 14.441407v240.527343zm0 0" fill="#c9e2e2"/><path d="m254.453125 0h138.046875c-13.085938 0-23.695312 10.609375-23.695312 23.695312v224.578126h-138.042969v-224.578126c0-13.085937 10.609375-23.695312 23.691406-23.695312zm0 0" fill="#ffe8c2"/><path d="m268.878906 23.695312c0-13.085937 10.609375-23.695312 23.691406-23.695312h-38.117187c-13.082031 0-23.691406 10.609375-23.691406 23.695312v224.578126h38.117187zm0 0" fill="#f4dab5"/><path d="m408.980469 252.414062v245.144532c0 7.972656-6.46875 14.441406-14.441407 14.441406h-189.511718c-7.972656 0-14.445313-6.46875-14.445313-14.441406v-245.144532c0-7.972656 6.472657-14.441406 14.445313-14.441406h189.511718c7.972657 0 14.441407 6.46875 14.441407 14.441406zm0 0" fill="#fe6150"/><path d="m269.90625 475.699219c-20.480469 0-37.085938-16.605469-37.085938-37.085938v-200.640625h-27.792968c-7.976563 0-14.445313 6.464844-14.445313 14.441406v245.144532c0 7.976562 6.46875 14.441406 14.445313 14.441406h189.511718c7.976563 0 14.441407-6.464844 14.441407-14.441406v-21.859375zm0 0" fill="#ef3325"/><path d="m48.28125 283.332031h107.765625c1.4375 0 2.601563-1.164062 2.601563-2.601562v-47.367188c0-1.4375-1.164063-2.601562-2.601563-2.601562h-107.765625c-3.90625 0-7.074219 3.164062-7.074219 7.070312v38.429688c0 3.902343 3.167969 7.070312 7.074219 7.070312zm0 0" fill="#cee0e0"/><path d="m49.859375 441.949219h106.1875c1.4375 0 2.601563-1.167969 2.601563-2.605469v-116.355469c0-1.4375-1.164063-2.601562-2.601563-2.601562h-106.1875c-4.777344 0-8.652344 3.875-8.652344 8.652343v104.257813c0 4.777344 3.875 8.652344 8.652344 8.652344zm0 0" fill="#cee0e0"/><path d="m66.273438 99.925781-.324219 70.859375c-.007813 2.402344-1.960938 4.34375-4.363281 4.34375h-61.585938zm0 0" fill="#8cc0c5"/><path d="m377.046875 275.253906v33.605469c0 4.65625-3.78125 8.4375-8.4375 8.4375h-137.652344c-4.65625 0-8.4375-3.78125-8.4375-8.4375v-33.605469c0-4.65625 3.78125-8.4375 8.4375-8.4375h137.652344c4.65625 0 8.4375 3.78125 8.4375 8.4375zm0 0" fill="#8effa4"/><path d="m277.496094 299.8125c-18.222656 0-32.992188-14.773438-32.992188-32.996094h-13.546875c-4.660156 0-8.4375 3.777344-8.4375 8.4375v33.605469c0 4.660156 3.777344 8.4375 8.4375 8.4375h137.652344c4.660156 0 8.4375-3.777344 8.4375-8.4375v-9.046875zm0 0" fill="#5ded75"/><path d="m377.046875 355.289062v121.808594c0 4.480469-3.636719 8.117188-8.117187 8.117188h-18.792969c-4.480469 0-8.117188-3.636719-8.117188-8.117188v-121.808594c0-4.480468 3.636719-8.117187 8.117188-8.117187h18.792969c4.480468 0 8.117187 3.636719 8.117187 8.117187zm0 0" fill="#fec12c"/><path d="m316.265625 460.242188v20.070312c0 2.707031-2.195313 4.902344-4.902344 4.902344h-23.160156c-2.710937 0-4.902344-2.195313-4.902344-4.902344v-20.070312c0-2.707032 2.191407-4.902344 4.902344-4.902344h23.160156c2.707031 0 4.902344 2.195312 4.902344 4.902344zm0 0" fill="#fec12c"/><path d="m257.546875 460.242188v20.070312c0 2.707031-2.195313 4.902344-4.90625 4.902344h-23.15625c-2.710937 0-4.90625-2.195313-4.90625-4.902344v-20.070312c0-2.707032 2.195313-4.902344 4.90625-4.902344h23.15625c2.710937 0 4.90625 2.195312 4.90625 4.902344zm0 0" fill="#fec12c"/><path d="m257.546875 406.675781v20.066407c0 2.710937-2.195313 4.902343-4.90625 4.902343h-23.15625c-2.710937 0-4.90625-2.191406-4.90625-4.902343v-20.066407c0-2.710937 2.195313-4.90625 4.90625-4.90625h23.15625c2.710937 0 4.90625 2.195313 4.90625 4.90625zm0 0" fill="#fec12c"/><path d="m316.265625 406.675781v20.066407c0 2.710937-2.195313 4.902343-4.902344 4.902343h-23.160156c-2.710937 0-4.902344-2.191406-4.902344-4.902343v-20.066407c0-2.710937 2.191407-4.90625 4.902344-4.90625h23.160156c2.707031 0 4.902344 2.195313 4.902344 4.90625zm0 0" fill="#fec12c"/><path d="m316.265625 352.074219v20.070312c0 2.707031-2.195313 4.902344-4.902344 4.902344h-23.160156c-2.710937 0-4.902344-2.195313-4.902344-4.902344v-20.070312c0-2.707031 2.191407-4.902344 4.902344-4.902344h23.160156c2.707031 0 4.902344 2.195313 4.902344 4.902344zm0 0" fill="#fec12c"/><path d="m257.546875 352.074219v20.070312c0 2.707031-2.195313 4.902344-4.90625 4.902344h-23.15625c-2.710937 0-4.90625-2.195313-4.90625-4.902344v-20.070312c0-2.707031 2.195313-4.902344 4.90625-4.902344h23.15625c2.710937 0 4.90625 2.195313 4.90625 4.902344zm0 0" fill="#fec12c"/><g fill="#f2d1a0"><path d="m272.996094 59.234375h-15.449219c-4.269531 0-7.726563-3.457031-7.726563-7.726563 0-4.265624 3.457032-7.726562 7.726563-7.726562h15.449219c4.269531 0 7.726562 3.460938 7.726562 7.726562 0 4.269532-3.457031 7.726563-7.726562 7.726563zm0 0"/><path d="m342.019531 59.234375h-45.328125c-4.265625 0-7.726562-3.457031-7.726562-7.726563 0-4.265624 3.460937-7.726562 7.726562-7.726562h45.328125c4.269531 0 7.726563 3.460938 7.726563 7.726562 0 4.269532-3.457032 7.726563-7.726563 7.726563zm0 0"/><path d="m342.019531 96.320312h-27.8125c-4.269531 0-7.726562-3.457031-7.726562-7.726562 0-4.265625 3.457031-7.722656 7.726562-7.722656h27.8125c4.269531 0 7.726563 3.457031 7.726563 7.722656 0 4.269531-3.457032 7.726562-7.726563 7.726562zm0 0"/><path d="m290.511719 96.320312h-32.964844c-4.269531 0-7.726563-3.457031-7.726563-7.726562 0-4.265625 3.457032-7.722656 7.726563-7.722656h32.964844c4.265625 0 7.726562 3.457031 7.726562 7.722656 0 4.269531-3.460937 7.726562-7.726562 7.726562zm0 0"/><path d="m272.996094 133.410156h-15.449219c-4.269531 0-7.726563-3.460937-7.726563-7.726562 0-4.269532 3.457032-7.726563 7.726563-7.726563h15.449219c4.269531 0 7.726562 3.457031 7.726562 7.726563 0 4.265625-3.457031 7.726562-7.726562 7.726562zm0 0"/><path d="m342.019531 133.410156h-45.328125c-4.265625 0-7.726562-3.460937-7.726562-7.726562 0-4.269532 3.460937-7.726563 7.726562-7.726563h45.328125c4.269531 0 7.726563 3.457031 7.726563 7.726563 0 4.265625-3.457032 7.726562-7.726563 7.726562zm0 0"/><path d="m290.511719 170.496094h-32.964844c-4.269531 0-7.726563-3.460938-7.726563-7.726563 0-4.269531 3.457032-7.726562 7.726563-7.726562h32.964844c4.265625 0 7.726562 3.457031 7.726562 7.726562 0 4.265625-3.460937 7.726563-7.726562 7.726563zm0 0"/><path d="m342.019531 170.496094h-27.8125c-4.269531 0-7.726562-3.460938-7.726562-7.726563 0-4.269531 3.457031-7.726562 7.726562-7.726562h27.8125c4.269531 0 7.726563 3.457031 7.726563 7.726562 0 4.265625-3.457032 7.726563-7.726563 7.726563zm0 0"/></g></svg>