<svg height="512pt" viewBox="0 -17 512.00025 512" width="512pt" xmlns="http://www.w3.org/2000/svg"><path d="m391.230469 95.898438c-2.289063 0-4.152344-1.863282-4.152344-4.152344v-57.832032h-360.261719c-2.835937 0-5.152344 2.316407-5.152344 5.152344v237.289063c1.171876-1.339844 2.375-2.660157 3.648438-3.9375 15.675781-15.773438 36.550781-24.457031 58.777344-24.457031 22.230468 0 43.105468 8.683593 58.78125 24.457031 23.699218 23.839843 30.050781 58.601562 19.101562 88.320312h313.609375c2.832031 0 5.148438-2.316406 5.148438-5.152343v-259.6875zm0 0" fill="#e6e9ed"/><path d="m84.09375 247.960938c6.070312 0 12.039062.667968 17.828125 1.933593v-74.835937c0-1.703125-1.390625-3.09375-3.089844-3.09375h-29.703125c-1.699218 0-3.089844 1.390625-3.089844 3.09375v74.886718c5.859376-1.296874 11.902344-1.984374 18.054688-1.984374zm0 0" fill="#fb8276"/><path d="m142.875 272.417969c6.035156 6.070312 10.945312 12.855469 14.730469 20.082031v-93.25c0-1.703125-1.390625-3.09375-3.089844-3.09375h-29.703125c-1.699219 0-3.089844 1.390625-3.089844 3.09375v57.726562c7.71875 3.941407 14.859375 9.109376 21.152344 15.441407zm0 0" fill="#ffc502"/><path d="m213.292969 306.203125v-135.441406c0-1.699219-1.390625-3.089844-3.089844-3.089844h-29.703125c-1.703125 0-3.09375 1.390625-3.09375 3.089844v135.441406zm0 0" fill="#89c947"/><path d="m268.976562 306.203125v-161.648437c0-1.699219-1.390624-3.089844-3.089843-3.089844h-29.703125c-1.699219 0-3.089844 1.390625-3.089844 3.089844v161.648437zm0 0" fill="#0291c9"/><path d="m324.664062 306.203125v-192.414063c0-1.699218-1.390624-3.09375-3.09375-3.09375h-29.703124c-1.699219 0-3.089844 1.394532-3.089844 3.09375v192.414063zm0 0" fill="#fb8276"/><path d="m380.671875 306.203125v-106.953125c0-1.703125-1.386719-3.09375-3.089844-3.09375h-29.703125c-1.699218 0-3.089844 1.390625-3.089844 3.09375v106.953125zm0 0" fill="#ffc502"/><path d="m436.355469 306.203125v-135.441406c0-1.699219-1.390625-3.089844-3.089844-3.089844h-29.703125c-1.699219 0-3.089844 1.390625-3.089844 3.089844v135.441406zm0 0" fill="#89c947"/><g fill="#046699"><path d="m169.464844 79.734375h-103.425782c-4.144531 0-7.5-3.355469-7.5-7.5 0-4.140625 3.355469-7.5 7.5-7.5h103.425782c4.140625 0 7.5 3.359375 7.5 7.5 0 4.144531-3.359375 7.5-7.5 7.5zm0 0"/><path d="m169.464844 102.410156h-103.425782c-4.144531 0-7.5-3.359375-7.5-7.5 0-4.144531 3.355469-7.5 7.5-7.5h103.425782c4.140625 0 7.5 3.355469 7.5 7.5 0 4.140625-3.359375 7.5-7.5 7.5zm0 0"/><path d="m131.96875 125.085938h-65.929688c-4.144531 0-7.5-3.359376-7.5-7.5 0-4.144532 3.355469-7.5 7.5-7.5h65.929688c4.144531 0 7.5 3.355468 7.5 7.5 0 4.140624-3.359375 7.5-7.5 7.5zm0 0"/></g><path d="m512 91.746094c0 2.832031-2.316406 5.152344-5.148438 5.152344h-115.621093c-2.835938 0-5.152344-2.320313-5.152344-5.152344v-86.59375c0-2.832032 2.316406-5.152344 5.152344-5.152344h115.621093c2.832032 0 5.148438 2.320312 5.148438 5.152344zm0 0" fill="#f7931e"/><path d="m483.277344 33.539062h-68.476563c-4.144531 0-7.5-3.355468-7.5-7.5 0-4.140624 3.355469-7.5 7.5-7.5h68.476563c4.144531 0 7.5 3.359376 7.5 7.5 0 4.144532-3.355469 7.5-7.5 7.5zm0 0" fill="#775436"/><path d="m483.277344 55.949219h-68.476563c-4.144531 0-7.5-3.359375-7.5-7.5s3.355469-7.5 7.5-7.5h68.476563c4.144531 0 7.5 3.359375 7.5 7.5s-3.355469 7.5-7.5 7.5zm0 0" fill="#775436"/><path d="m445.398438 78.359375h-30.597657c-4.144531 0-7.5-3.359375-7.5-7.5s3.355469-7.5 7.5-7.5h30.597657c4.140624 0 7.5 3.359375 7.5 7.5s-3.359376 7.5-7.5 7.5zm0 0" fill="#775436"/><path d="m436.886719 304.882812h-274.03125c1.628906 4.898438 2.8125 9.921876 3.515625 15h270.519531c4.140625 0 7.5-3.359374 7.5-7.5-.003906-4.144531-3.359375-7.5-7.503906-7.5zm0 0" fill="#9ea7af"/><path d="m228.546875 460.769531-64.1875-64.578125-16.0625 16.097656 64.21875 64.609376c1.996094 2.007812 5.265625 2.007812 7.265625 0l8.765625-8.824219c2-2.007813 2-5.296875 0-7.304688zm0 0" fill="#0291c9"/><path d="m166.335938 388.335938-11.921876-12.191407c-3.238281 5.167969-7.070312 10.066407-11.542968 14.566407-4.539063 4.566406-9.527344 8.519531-14.851563 11.863281l11.929688 12.195312c1.980469 2.023438 5.242187 2.042969 7.242187.035157l19.105469-19.140626c2.003906-2.003906 2.019531-5.304687.039063-7.328124zm0 0" fill="#0481bf"/><path d="m143.582031 391.417969c-32.804687 33-86.179687 33-118.980469 0-32.800781-33.003907-32.800781-86.703125 0-119.707031 32.804688-33.003907 86.175782-33.003907 118.980469 0 32.804688 33.003906 32.804688 86.703124 0 119.707031zm0 0" fill="#ef5050"/><path d="m126.804688 288.589844c23.589843 23.734375 23.589843 62.214844 0 85.949218-23.585938 23.730469-61.835938 23.730469-85.425782 0-23.589844-23.734374-23.589844-62.214843 0-85.949218s61.835938-23.734375 85.425782 0zm0 0" fill="#75eae7"/><path d="m84.09375 399.835938c-18.148438 0-35.207031-7.105469-48.035156-20.011719-26.449219-26.609375-26.449219-69.910157 0-96.519531 12.828125-12.90625 29.886718-20.011719 48.035156-20.011719s35.203125 7.105469 48.03125 20.011719c26.453125 26.609374 26.453125 69.910156 0 96.519531-12.828125 12.90625-29.882812 20.011719-48.03125 20.011719zm0-121.546876c-14.125 0-27.402344 5.535157-37.394531 15.589844-20.65625 20.777344-20.65625 54.589844 0 75.371094 9.988281 10.050781 23.269531 15.585938 37.394531 15.585938 14.121094 0 27.402344-5.535157 37.390625-15.585938 20.65625-20.78125 20.65625-54.59375 0-75.371094-9.988281-10.054687-23.269531-15.589844-37.390625-15.589844zm0 0" fill="#fb8276"/></svg>