<?xml version="1.0" encoding="utf-8"?>
<!-- Generator: Adobe Illustrator 23.0.2, SVG Export Plug-In . SVG Version: 6.00 Build 0)  -->
<svg version="1.1" id="Layer_1" xmlns="http://www.w3.org/2000/svg" xmlns:xlink="http://www.w3.org/1999/xlink" x="0px" y="0px"
	 viewBox="0 0 511 511" style="enable-background:new 0 0 511 511;" xml:space="preserve">
<style type="text/css">
	.st0{fill:#0E9347;}
	.st1{fill:#3BB54A;}
	.st2{fill:#89C763;}
	.st3{fill:#954C35;}
	.st4{fill:#C0694E;}
	.st5{fill:#C97E67;}
	.st6{fill:#EDC472;}
	.st7{fill:#FFDE91;}
	.st8{fill:#FFE89C;}
	.st9{fill:#DBAD5C;}
	.st10{fill:#FCF2B6;}
	.st11{font-family:'Montserrat-Bold';}
	.st12{font-size:58.3126px;}
</style>
<g>
	<path class="st0" d="M288.5,478.1v-317c0-8.7,7.1-15.8,15.8-15.8h174.4c8.7,0,15.8,7.1,15.8,15.8v317c0,8.7-7.1,15.8-15.8,15.8
		H304.3C295.7,493.9,288.5,486.8,288.5,478.1z"/>
	<path class="st1" d="M304.3,446.4V192.8c17.4,0,31.7-14.3,31.7-31.7h111c0,17.4,14.3,31.7,31.7,31.7v253.6
		c-17.4,0-31.7,14.3-31.7,31.7H336C336,460.7,321.8,446.4,304.3,446.4z"/>
	<g>
		<ellipse class="st0" cx="391.5" cy="319.6" rx="71.3" ry="63.4"/>
		<circle class="st0" cx="391.5" cy="224.5" r="15.8"/>
		<circle class="st0" cx="391.5" cy="414.7" r="15.8"/>
	</g>
	<g>
		<path class="st2" d="M340.6,316h6.7c2.3,0,4.2-1.6,4.6-3.9c1.6-7.8,4.9-13.6,10.1-18.4c5.8-5.2,14.7-8.6,25.9-8.6
			c18.5,0,32.8,10.6,37.1,27.3c0.6,2.1,2.4,3.6,4.6,3.6h6.7c2.6,0,4.7,2.1,4.7,4.7l0,0c0,2.6-2.1,4.7-4.7,4.7h-5.8
			c-2.4,0-4.4,1.8-4.7,4.2c-0.4,3.1-1.1,5.9-1.8,8.2c-0.8,2.4-3.4,3.8-5.9,3.1l-1-0.3c-2.6-0.8-4-3.5-3.2-6.1
			c1-2.9,1.7-6.7,1.7-11.5c0-15.1-12.2-24.5-27.3-24.5c-17,0-27,10.4-27,23.9c0,5.3,0.9,9.4,1.9,12.6c0.9,2.6-0.7,5.4-3.4,6.2
			l-0.6,0.1c-2.3,0.6-4.7-0.7-5.6-2.9c-1-2.5-1.8-5.6-2.3-9.1c-0.3-2.3-2.3-4-4.7-4h-6.4c-2.6,0-4.7-2.1-4.7-4.7l0,0
			C335.9,318.1,338,316,340.6,316z"/>
	</g>
</g>
<path class="st3" d="M37.7,87.9l7.6,13.6l123.3-69.4L161,18.6L37.7,87.9z"/>
<path class="st3" d="M175.4,18.6l-7.6,13.6l129,72.1l7.6-13.6L175.4,18.6z"/>
<path class="st4" d="M329,93.4v154.9c0,7.7-6.3,14-14,14H22.1c-7.7,0-14-6.3-14-14V93.4c0-7.7,6.3-14,14-14H315
	C322.8,79.4,329,85.7,329,93.4z"/>
<path class="st5" d="M329,93.4v131.7H50.5c-7.7,0-14-6.3-14-14V79.4H315C322.8,79.4,329,85.7,329,93.4z"/>
<path class="st6" d="M187.3,18.7c0,10.3-8.4,18.7-18.7,18.7s-18.7-8.4-18.7-18.7S158.3,0,168.6,0S187.3,8.4,187.3,18.7z"/>
<g>
	<path class="st7" d="M322.1,458.3c-16.5,17.9-37.9,28.5-60.2,31.8c-29,4.1-59.5-4.4-82.7-25.6c-41.2-37.7-43.9-101.8-6.1-142.9
		c23.5-25.6,57-36.3,88.9-31.8c19.5,2.8,38.4,11.3,54.1,25.6C357.2,353.2,359.8,417.2,322.1,458.3z"/>
	<path class="st8" d="M322.1,458.3c-16.5,17.9-37.9,28.5-60.2,31.8c-19.5-2.8-38.4-11.3-54.1-25.6c-41.2-37.7-43.9-101.8-6.1-142.9
		c16.5-17.9,37.9-28.5,60.2-31.8c19.5,2.8,38.4,11.3,54.1,25.6C357.2,353.2,359.8,417.2,322.1,458.3z"/>
	<path class="st9" d="M318.8,403.5c-3.4,17.9-13.3,33.8-27.8,44.6c-8.8,6.6-18.7,10.9-29,12.9c-26.6,5.3-55.3-4.5-72.6-27.7
		c-12.1-16.2-16.9-36.9-13.2-56.9c3.4-17.9,13.3-33.8,27.8-44.6c15.6-11.6,34.7-16.5,53.8-13.6c1.3,0.1,2.5,0.4,3.8,0.7
		c17.5,3.6,33.1,13.2,43.9,27.7C317.7,362.8,322.6,383.5,318.8,403.5z"/>
	<path class="st6" d="M318.8,403.5c-3.4,17.9-13.3,33.8-27.8,44.6c-8.8,6.6-18.7,10.9-29,12.9c-16.9-3.4-32.7-12.8-43.8-27.7
		c-12.1-16.2-16.9-36.9-13.2-56.9c3.4-17.9,13.3-33.8,27.8-44.6c8.7-6.5,18.6-10.9,29-13.1c17.5,3.6,33.1,13.2,43.9,27.7
		C317.7,362.8,322.6,383.5,318.8,403.5z"/>
	<g>
		<path class="st8" d="M242.7,441.3v-7.3c0-2.5-1.7-4.5-4.1-5c-8.4-1.7-14.8-5.3-19.9-10.9c-5.7-6.3-9.2-15.8-9.2-28
			c0-19.9,11.5-35.5,29.4-40.1c2.2-0.5,3.8-2.6,3.8-5v-7.3c0-2.8,2.2-5.1,5.1-5.1l0,0c2.8,0,5.1,2.2,5.1,5.1v6.2
			c0,2.6,2,4.7,4.5,5.1c3.3,0.4,6.3,1.1,8.8,2c2.6,0.9,4.1,3.7,3.3,6.3l-0.3,1.1c-0.8,2.8-3.8,4.4-6.5,3.4
			c-3.2-1.1-7.3-1.8-12.4-1.8c-16.4,0-26.5,13.2-26.5,29.4c0,18.3,11.2,29.2,25.9,29.2c5.8,0,10.2-0.9,13.7-2.1
			c2.9-0.9,5.9,0.7,6.6,3.6l0.1,0.7c0.7,2.5-0.7,5.1-3.2,6.1c-2.6,1.1-6.1,2-9.8,2.5c-2.5,0.4-4.4,2.5-4.4,5v6.9
			c0,2.8-2.2,5.1-5.1,5.1l0,0C244.9,446.5,242.7,444.1,242.7,441.3z"/>
	</g>
	<path class="st8" d="M201,458.3c-16.5,17.9-37.9,28.5-60.2,31.8c-29,4.1-59.5-4.4-82.7-25.6C16.9,426.8,14.2,362.7,52,321.7
		c23.5-25.6,57-36.3,88.9-31.8c19.5,2.8,38.4,11.3,54.1,25.6C236.1,353.2,238.7,417.2,201,458.3z"/>
	<path class="st10" d="M201,458.3c-16.5,17.9-37.9,28.5-60.2,31.8c-19.5-2.8-38.4-11.3-54.1-25.6c-41.2-37.7-43.9-101.8-6.1-142.9
		c16.5-17.9,37.9-28.5,60.2-31.8c19.5,2.8,38.4,11.3,54.1,25.6C236.1,353.2,238.7,417.2,201,458.3z"/>
	<path class="st9" d="M197.7,403.5c-3.4,17.9-13.3,33.8-27.8,44.6c-8.8,6.6-18.7,10.9-29,12.9c-26.6,5.3-55.3-4.5-72.6-27.7
		c-12.1-16.2-16.9-36.9-13.2-56.9c3.4-17.9,13.3-33.8,27.8-44.6c15.6-11.6,34.7-16.5,53.8-13.6c1.3,0.1,2.5,0.4,3.8,0.7
		c17.5,3.6,33.1,13.2,43.9,27.7C196.6,362.8,201.5,383.5,197.7,403.5z"/>
	<path class="st6" d="M197.7,403.5c-3.4,17.9-13.3,33.8-27.8,44.6c-8.8,6.6-18.7,10.9-29,12.9c-16.9-3.4-32.7-12.8-43.8-27.7
		c-12.1-16.2-16.9-36.9-13.2-56.9c3.4-17.9,13.3-33.8,27.8-44.6c8.7-6.5,18.6-10.9,29-13.1c17.5,3.6,33.1,13.2,43.9,27.7
		C196.6,362.8,201.5,383.5,197.7,403.5z"/>
	<g>
		<path class="st8" d="M123.9,441.3v-7.3c0-2.5-1.7-4.5-4.1-5c-8.4-1.7-14.8-5.3-19.9-10.9c-5.7-6.3-9.2-15.8-9.2-28
			c0-19.9,11.5-35.5,29.4-40.1c2.2-0.5,3.8-2.6,3.8-5v-7.3c0-2.8,2.2-5.1,5.1-5.1l0,0c2.8,0,5.1,2.2,5.1,5.1v6.2
			c0,2.6,2,4.7,4.5,5.1c3.3,0.4,6.3,1.1,8.8,2c2.6,0.9,4.1,3.7,3.3,6.3l-0.3,1.1c-0.8,2.8-3.8,4.4-6.5,3.4
			c-3.2-1.1-7.3-1.8-12.4-1.8c-16.4,0-26.5,13.2-26.5,29.4c0,18.3,11.2,29.2,25.9,29.2c5.8,0,10.2-0.9,13.7-2.1
			c2.9-0.9,5.9,0.7,6.6,3.6l0.1,0.7c0.7,2.5-0.7,5.1-3.2,6.1c-2.6,1.1-6.1,2-9.8,2.5c-2.5,0.4-4.4,2.5-4.4,5v6.9
			c0,2.8-2.2,5.1-5.1,5.1l0,0C126.3,446.5,123.9,444.1,123.9,441.3z"/>
	</g>
</g>
<text transform="matrix(1 0 0 1 45.6543 184.4679)" class="st10 st11 st12">DEDUCT</text>
</svg>
