<svg height="464pt" viewBox="0 0 464 464.00003" width="464pt" xmlns="http://www.w3.org/2000/svg"><path d="m96 0h184v192h-184zm0 0" fill="#9cdd05"/><path d="m280 0h184v192h-184zm0 0" fill="#a5e01c"/><path d="m160 32c0 17.671875-14.328125 32-32 32v64c17.671875 0 32 14.328125 32 32h120v-128zm0 0" fill="#5eac24"/><path d="m400 32h-120v128h120c0-17.671875 14.328125-32 32-32v-64c-17.671875 0-32-14.328125-32-32zm0 0" fill="#6db438"/><path d="m312 96c0 17.671875-14.328125 32-32 32s-32-14.328125-32-32 14.328125-32 32-32 32 14.328125 32 32zm0 0" fill="#f1f2f2"/><path d="m240 160h160c17.671875 0 32 14.328125 32 32v240c0 17.671875-14.328125 32-32 32h-160c-17.671875 0-32-14.328125-32-32v-240c0-17.671875 14.328125-32 32-32zm0 0" fill="#d1e7f8"/><path d="m240 192h160v48h-160zm0 0" fill="#88f236"/><path d="m240 272h80v80h-80zm0 0" fill="#005ece"/><path d="m240 352h80v80h-80zm0 0" fill="#2488ff"/><path d="m320 272h80v80h-80zm0 0" fill="#006df0"/><path d="m80 328c-44.160156 0-80 10.71875-80 24 0 7.839844 12.558594 14.800781 32 19.121094 10.527344 2.34375 21.230469 3.816406 32 4.398437 5.121094.320313 10.480469.480469 16 .480469s10.878906-.160156 16-.480469c10.769531-.582031 21.472656-2.054687 32-4.398437 19.441406-4.320313 32-11.28125 32-19.121094 0-13.28125-35.839844-24-80-24zm0 0" fill="#cc7400"/><path d="m80 384c-44.160156 0-80 10.71875-80 24 0 7.839844 12.558594 14.800781 32 19.121094 10.527344 2.34375 21.230469 3.816406 32 4.398437 5.121094.320313 10.480469.480469 16 .480469s10.878906-.160156 16-.480469c10.769531-.582031 21.472656-2.054687 32-4.398437 19.441406-4.320313 32-11.28125 32-19.121094 0-13.28125-35.839844-24-80-24zm0 0" fill="#cc7400"/><path d="m0 296v32c0 7.863281 12.59375 14.816406 32 19.199219v-32.078125c-19.441406-4.320313-32-11.28125-32-19.121094zm0 0" fill="#6e4b28"/><path d="m64 319.519531c-10.769531-.582031-21.472656-2.054687-32-4.398437v32.078125c10.535156 2.285156 21.234375 3.734375 32 4.328125zm0 0" fill="#825c3c"/><path d="m96 319.519531c-5.121094.320313-10.480469.480469-16 .480469s-10.878906-.160156-16-.480469v32c5.167969.3125 10.519531.480469 16 .480469s10.832031-.167969 16-.480469zm0 0" fill="#a97c50"/><path d="m128 371.121094c-10.527344 2.34375-21.230469 3.816406-32 4.398437v32c10.765625-.59375 21.464844-2.042969 32-4.328125zm0 0" fill="#c49a6c"/><path d="m128 371.121094v32.078125c19.40625-4.375 32-11.328125 32-19.199219v-32c0 7.839844-12.558594 14.800781-32 19.121094zm0 0" fill="#cfac87"/><path d="m128 315.121094v32.078125c19.40625-4.375 32-11.328125 32-19.199219v-32c0 7.839844-12.558594 14.800781-32 19.121094zm0 0" fill="#cfac87"/><path d="m128 315.121094c-10.527344 2.34375-21.230469 3.816406-32 4.398437v32c10.765625-.59375 21.464844-2.042969 32-4.328125zm0 0" fill="#c49a6c"/><path d="m96 375.519531c-5.121094.320313-10.480469.480469-16 .480469s-10.878906-.160156-16-.480469v32c5.167969.3125 10.519531.480469 16 .480469s10.832031-.167969 16-.480469zm0 0" fill="#a97c50"/><path d="m0 352v32c0 7.863281 12.59375 14.816406 32 19.199219v-32.078125c-19.441406-4.320313-32-11.28125-32-19.121094zm0 0" fill="#6e4b28"/><path d="m64 375.519531c-10.769531-.582031-21.472656-2.054687-32-4.398437v32.078125c10.535156 2.285156 21.234375 3.734375 32 4.328125zm0 0" fill="#825c3c"/><path d="m128 427.121094c-10.527344 2.34375-21.230469 3.816406-32 4.398437v32c10.765625-.59375 21.464844-2.042969 32-4.328125zm0 0" fill="#a97c50"/><path d="m128 427.121094v32.078125c19.40625-4.375 32-11.328125 32-19.199219v-32c0 7.839844-12.558594 14.800781-32 19.121094zm0 0" fill="#cfac87"/><path d="m96 431.519531c-5.121094.320313-10.480469.480469-16 .480469s-10.878906-.160156-16-.480469v32c5.167969.3125 10.519531.480469 16 .480469s10.832031-.167969 16-.480469zm0 0" fill="#8b5e3c"/><path d="m0 408v32c0 7.863281 12.59375 14.816406 32 19.199219v-32.078125c-19.441406-4.320313-32-11.28125-32-19.121094zm0 0" fill="#6e4b28"/><path d="m64 431.519531c-10.769531-.582031-21.472656-2.054687-32-4.398437v32.078125c10.535156 2.285156 21.234375 3.734375 32 4.328125zm0 0" fill="#825c3c"/><path d="m80 272c-44.160156 0-80 10.71875-80 24 0 7.839844 12.558594 14.800781 32 19.121094 10.527344 2.34375 21.230469 3.816406 32 4.398437 5.121094.320313 10.480469.480469 16 .480469s10.878906-.160156 16-.480469c10.769531-.582031 21.472656-2.054687 32-4.398437 19.441406-4.320313 32-11.28125 32-19.121094 0-13.28125-35.839844-24-80-24zm0 0" fill="#ff9811"/><path d="m80 216c-44.160156 0-80 10.71875-80 24 0 7.839844 12.558594 14.800781 32 19.121094 10.527344 2.34375 21.230469 3.816406 32 4.398437 5.121094.320313 10.480469.480469 16 .480469s10.878906-.160156 16-.480469c10.769531-.582031 21.472656-2.054687 32-4.398437 19.441406-4.320313 32-11.28125 32-19.121094 0-13.28125-35.839844-24-80-24zm0 0" fill="#f09217"/><path d="m0 184v32c0 7.863281 12.59375 14.816406 32 19.199219v-32.078125c-19.441406-4.320313-32-11.28125-32-19.121094zm0 0" fill="#6e4b28"/><path d="m64 207.519531c-10.769531-.582031-21.472656-2.054687-32-4.398437v32.078125c10.535156 2.285156 21.234375 3.734375 32 4.328125zm0 0" fill="#825c3c"/><path d="m96 207.519531c-5.121094.320313-10.480469.480469-16 .480469s-10.878906-.160156-16-.480469v32c5.167969.3125 10.519531.480469 16 .480469s10.832031-.167969 16-.480469zm0 0" fill="#a97c50"/><path d="m128 291.199219c19.40625-4.375 32-11.328125 32-19.199219v-32c0 7.839844-12.558594 14.800781-32 19.121094v17.757812" fill="#cfac87"/><path d="m128 203.121094v32.078125c19.40625-4.375 32-11.328125 32-19.199219v-32c0 7.839844-12.558594 14.800781-32 19.121094zm0 0" fill="#cfac87"/><path d="m128 203.121094c-10.527344 2.34375-21.230469 3.816406-32 4.398437v32c10.765625-.59375 21.464844-2.042969 32-4.328125zm0 0" fill="#c49a6c"/><path d="m96 295.519531v-32c-5.121094.320313-10.480469.480469-16 .480469s-10.878906-.160156-16-.480469v32" fill="#a97c50"/><path d="m32 291.199219v-32.078125c-19.441406-4.320313-32-11.28125-32-19.121094v32c0 7.863281 12.59375 14.816406 32 19.199219" fill="#6e4b28"/><path d="m64 295.519531v-32c-10.769531-.582031-21.472656-2.054687-32-4.398437v32.078125" fill="#825c3c"/><path d="m80 160c-44.160156 0-80 10.71875-80 24 0 7.839844 12.558594 14.800781 32 19.121094 10.527344 2.34375 21.230469 3.816406 32 4.398437 5.121094.320313 10.480469.480469 16 .480469s10.878906-.160156 16-.480469c10.769531-.582031 21.472656-2.054687 32-4.398437 19.441406-4.320313 32-11.28125 32-19.121094 0-13.28125-35.839844-24-80-24" fill="#ffaf46"/><path d="m128 259.121094c-10.527344 2.34375-21.230469 3.816406-32 4.398437v32c10.765625-.59375 21.464844-2.042969 32-4.328125zm0 0" fill="#c49a6c"/><path d="m240 464h160c17.671875 0 32-14.328125 32-32v-160c.03125 50.929688-20.1875 99.785156-56.203125 135.796875-36.011719 36.015625-84.867187 56.234375-135.796875 56.203125zm0 0" fill="#c2dff6"/><path d="m320 352h80v80h-80zm0 0" fill="#57a4ff"/><g fill="#f1f2f2"><path d="m336 88h32v16h-32zm0 0"/><path d="m192 88h32v16h-32zm0 0"/><path d="m288 288h-16v16h-16v16h16v16h16v-16h16v-16h-16zm0 0"/><path d="m291.3125 369.375-11.3125 11.3125-11.3125-11.3125-11.3125 11.3125 11.3125 11.3125-11.3125 11.3125 11.3125 11.3125 11.3125-11.3125 11.3125 11.3125 11.3125-11.3125-11.3125-11.3125 11.3125-11.3125zm0 0"/><path d="m344 304h32v16h-32zm0 0"/><path d="m344 376h32v16h-32zm0 0"/><path d="m344 400h32v16h-32zm0 0"/></g></svg>